<?xml version="1.0" standalone="no"?>
<!DOCTYPE svg PUBLIC "-//W3C//DTD SVG 20010904//EN"
 "http://www.w3.org/TR/2001/REC-SVG-20010904/DTD/svg10.dtd">
<svg version="1.0" xmlns="http://www.w3.org/2000/svg"
 width="300.000000pt" height="300.000000pt" viewBox="0 0 300.000000 300.000000"
 preserveAspectRatio="xMidYMid meet">
<metadata>
Created by potrace 1.10, written by Peter Selinger 2001-2011
</metadata>
<g transform="translate(0.000000,300.000000) scale(0.100000,-0.100000)"
fill="#000000" stroke="none">
<path d="M2140 2991 c-8 -5 -28 -11 -45 -14 -80 -14 -200 -73 -250 -123 -46
-46 -38 -56 12 -16 97 76 238 126 358 125 132 0 239 -42 388 -154 101 -76 170
-107 256 -115 67 -7 134 12 139 39 3 16 0 18 -20 10 -12 -4 -59 -8 -103 -8
-95 0 -156 24 -256 102 -88 69 -139 96 -244 132 -91 31 -201 41 -235 22z"/>
<path d="M1910 2826 c-50 -13 -106 -43 -60 -31 68 17 201 17 257 1 191 -56
276 -107 426 -252 129 -125 200 -165 310 -172 92 -5 157 11 157 39 0 16 -4 19
-17 14 -10 -5 -44 -13 -75 -18 -46 -9 -69 -7 -120 7 -82 22 -144 64 -248 167
-139 137 -262 206 -425 240 -103 22 -142 23 -205 5z"/>
<path d="M1320 2444 c-268 -48 -505 -211 -649 -446 -106 -172 -147 -331 -138
-543 7 -192 51 -339 144 -478 56 -85 214 -246 265 -270 20 -9 59 -32 87 -51
116 -79 295 -126 473 -126 201 0 307 30 488 138 132 78 287 237 347 356 59
116 102 318 88 410 -5 31 -3 37 9 33 25 -10 46 21 46 66 0 108 -67 295 -147
413 -127 186 -346 340 -573 404 -101 28 -271 36 -372 17 -81 -15 -104 -7 -42
13 20 7 91 12 162 12 149 -1 292 -30 435 -89 86 -35 120 -40 74 -10 -42 28
-164 75 -253 99 -76 20 -112 23 -249 23 -158 -1 -161 -1 -268 -38 -123 -42
-169 -64 -248 -118 -31 -21 -59 -36 -63 -34 -3 3 -4 3 -2 0 2 -3 -28 -36 -66
-73 -39 -37 -89 -94 -113 -127 -55 -77 -113 -195 -107 -219 2 -10 0 -16 -6
-12 -6 4 -8 -3 -5 -16 4 -22 3 -22 -11 2 -17 28 -22 19 -6 -11 6 -11 8 -35 4
-57 l-7 -37 -14 35 c-7 19 -11 24 -8 10 12 -53 16 -96 7 -75 -5 11 -8 -46 -6
-139 1 -90 7 -163 12 -168 7 -7 9 26 5 104 -7 132 5 212 48 342 54 162 160
311 292 414 61 46 238 142 264 142 31 0 7 -18 -80 -62 -309 -153 -497 -451
-497 -787 0 -89 11 -174 32 -246 20 -71 27 -60 8 13 -105 399 91 821 461 997
213 101 485 114 704 33 334 -122 568 -410 610 -752 11 -89 -11 -67 -24 24 -44
297 -241 555 -521 683 -216 98 -495 105 -711 17 -134 -54 -245 -134 -337 -243
-51 -59 -95 -123 -60 -87 8 8 39 44 69 79 112 131 285 235 459 276 106 24 280
22 385 -5 166 -42 346 -152 445 -271 92 -110 176 -279 167 -338 -4 -29 1 -37
-44 79 -93 244 -315 438 -578 506 -87 22 -285 25 -365 5 -97 -24 -308 -119
-295 -133 3 -3 -22 -29 -55 -58 -119 -103 -216 -261 -261 -426 -18 -67 -21
-96 -16 -189 10 -203 77 -356 222 -501 76 -77 105 -98 185 -137 108 -53 173
-72 286 -82 100 -9 91 11 -12 26 -180 24 -292 83 -420 219 -147 157 -191 262
-205 495 -10 170 -6 191 62 328 78 158 219 300 364 367 120 55 221 74 359 67
178 -8 323 -65 458 -178 116 -97 178 -179 239 -318 21 -47 47 -92 57 -99 17
-11 22 -10 40 13 24 30 27 27 46 -56 27 -117 17 -339 -19 -446 -37 -109 -107
-218 -202 -316 -136 -140 -260 -210 -448 -253 -77 -17 -365 -27 -343 -11 9 5
4 7 -13 3 -14 -3 -29 -2 -33 2 -4 4 -17 8 -29 8 -33 3 -59 10 -103 30 -21 9
-42 18 -46 19 -5 2 -11 4 -15 5 -5 1 -11 2 -15 1 -5 0 -8 4 -8 10 0 6 -7 8
-16 5 -8 -3 -13 -2 -10 3 8 12 -22 23 -37 14 -7 -3 -9 -3 -5 2 5 5 -20 26 -55
49 -71 46 -219 189 -264 256 -65 96 -124 241 -151 370 -8 38 -10 40 -11 14 -1
-16 8 -66 20 -109 50 -194 171 -378 318 -485 33 -24 58 -46 56 -48 -8 -8 -113
79 -172 142 -161 172 -246 391 -241 621 l2 90 6 -90 c6 -78 6 -70 6 60 0 137
3 157 27 228 110 319 329 527 659 628 97 30 112 32 263 32 142 0 172 -3 260
-27 55 -14 138 -44 183 -66 94 -45 100 -47 81 -24 -37 45 -241 121 -362 134
-112 13 -267 11 -357 -6z m-575 -982 c1 -203 62 -350 203 -490 46 -46 73 -78
60 -71 -42 22 -136 127 -178 198 -67 113 -92 204 -98 354 -2 70 0 127 4 127 5
0 9 -53 9 -118z"/>
<path d="M834 2138 c-39 -40 -76 -82 -84 -93 -16 -23 -17 -24 85 83 43 45 76
82 74 82 -2 0 -36 -33 -75 -72z"/>
<path d="M1279 2039 c-27 -27 -21 -49 18 -74 l32 -20 1 -447 0 -447 -29 -15
c-26 -14 -41 -34 -41 -56 0 -5 10 -18 22 -30 20 -19 34 -20 218 -20 196 0 197
0 220 24 26 29 22 48 -17 73 -15 10 -31 22 -35 28 -4 5 -8 96 -8 201 0 215 2
221 64 210 42 -8 72 -43 81 -95 8 -49 48 -90 73 -75 36 23 42 55 42 230 0 158
-2 173 -21 198 -11 14 -26 26 -33 26 -20 0 -52 -42 -64 -85 -16 -56 -32 -75
-72 -84 -61 -14 -60 -17 -60 186 l0 185 74 -4 c63 -3 81 -8 117 -33 43 -31 88
-102 89 -141 0 -29 37 -74 60 -74 11 0 27 11 36 25 14 21 16 46 12 150 -4 121
-5 125 -33 155 l-29 30 -348 0 c-338 0 -349 -1 -369 -21z m721 -29 c11 -7 16
-40 21 -137 3 -70 3 -132 -1 -137 -15 -16 -27 3 -34 53 -7 52 -44 116 -88 150
-49 39 -93 51 -188 51 l-90 0 0 -231 c0 -207 2 -230 16 -225 9 3 43 6 76 6 79
0 111 29 129 119 8 37 18 61 26 61 11 0 13 -39 11 -197 -3 -205 -12 -243 -35
-143 -21 97 -61 130 -160 130 l-63 0 0 -255 0 -255 45 0 c33 0 45 -4 45 -15 0
-13 -30 -15 -210 -15 -180 0 -210 2 -210 15 0 11 11 15 40 15 l40 0 0 498 0
498 -40 -4 c-32 -3 -40 -1 -40 12 0 14 35 16 348 16 196 0 353 -4 362 -10z"/>
<path d="M702 1693 c-47 -163 -36 -305 41 -518 68 -188 246 -363 452 -446 359
-143 769 -17 980 301 23 36 51 83 60 105 10 22 19 34 22 28 11 -29 -84 -194
-159 -274 -99 -107 -246 -192 -388 -224 -100 -23 -106 -26 -37 -19 91 9 179
37 264 85 105 59 262 216 318 316 36 66 55 88 55 65 0 -5 -22 -46 -50 -91 -94
-157 -208 -264 -362 -342 -109 -55 -211 -80 -358 -90 l-125 -7 140 3 c142 4
242 24 349 70 172 74 363 274 438 457 36 89 63 270 50 330 l-10 43 -1 -65 c-1
-72 -25 -233 -41 -274 -13 -34 -25 -33 -60 6 -29 31 -30 31 -50 13 -11 -10
-32 -39 -47 -64 -96 -165 -257 -294 -448 -358 -74 -25 -91 -27 -234 -25 -181
2 -273 21 -391 83 -189 98 -324 262 -390 474 -30 98 -38 284 -16 379 18 74 16
100 -2 39z"/>
<path d="M2630 1313 c-14 -18 -19 -35 -15 -51 4 -17 -1 -28 -19 -43 -24 -19
-78 -109 -92 -152 -3 -10 -30 -51 -60 -89 -30 -39 -54 -76 -54 -84 0 -7 -16
-28 -35 -45 -19 -18 -35 -40 -35 -50 0 -10 -15 -25 -37 -36 -23 -11 -44 -31
-53 -50 -10 -22 -22 -33 -36 -33 -27 0 -74 -46 -74 -72 0 -15 -5 -18 -21 -13
-15 5 -29 -2 -54 -29 -21 -22 -43 -36 -58 -36 -13 0 -36 -9 -50 -20 -14 -11
-30 -20 -35 -20 -21 0 -158 -69 -176 -89 -17 -18 -18 -26 -8 -59 19 -59 75
-165 95 -177 13 -7 24 -6 45 5 22 13 28 24 30 58 4 49 10 51 42 17 13 -14 31
-25 40 -25 9 0 27 11 40 25 13 14 34 25 46 25 14 0 32 12 46 30 14 19 31 30
46 30 37 0 152 93 152 124 0 11 9 16 28 16 20 0 42 14 80 53 29 29 52 60 52
70 0 10 8 17 19 17 25 0 71 48 71 75 0 16 9 26 30 35 34 14 75 58 86 92 4 13
17 36 30 51 13 16 24 34 24 41 0 7 9 21 20 31 30 28 34 52 11 81 -17 22 -30
94 -17 94 1 0 17 -5 35 -11 28 -10 35 -9 57 12 13 12 24 31 24 42 0 21 -165
187 -186 187 -7 0 -22 -12 -34 -27z m79 -58 c24 -31 58 -63 77 -72 35 -17 44
-40 20 -49 -8 -3 -27 1 -43 8 -16 7 -52 12 -83 10 -52 -3 -56 -5 -73 -40 -18
-34 -18 -37 -1 -49 25 -18 33 -16 46 12 11 25 32 33 42 16 3 -4 -1 -17 -9 -27
-22 -29 -18 -42 20 -55 39 -14 41 -18 23 -41 -12 -14 -22 -11 -98 33 -47 27
-85 53 -85 57 0 5 14 36 30 69 l30 61 53 4 53 3 -33 40 c-31 36 -40 75 -18 75
4 0 26 -25 49 -55z m-22 -350 c2 -1 -3 -9 -10 -19 -12 -17 -19 -14 -100 39
-76 49 -86 59 -77 75 11 20 15 18 187 -95z m-200 5 c-15 -12 -27 -29 -27 -39
0 -19 44 -64 73 -74 18 -7 59 25 69 53 6 18 28 3 28 -20 0 -28 -54 -80 -85
-80 -57 0 -112 47 -121 102 -5 29 -1 41 26 72 30 33 35 36 48 22 14 -14 13
-17 -11 -36z m70 -21 c16 -16 5 -39 -17 -39 -25 0 -35 18 -20 35 15 18 22 19
37 4z m-49 -226 c-16 -15 -22 -15 -98 3 -73 18 -101 17 -66 -3 7 -4 30 -23 51
-41 32 -29 36 -36 23 -48 -12 -12 -24 -4 -88 56 -71 66 -74 70 -58 87 17 16
21 16 90 0 40 -10 77 -17 81 -17 5 0 -15 22 -45 49 -47 43 -51 50 -39 65 13
16 21 11 90 -58 71 -71 75 -77 59 -93z m-226 -70 c46 -31 85 -58 87 -60 3 -2
-3 -11 -12 -20 -15 -16 -18 -15 -37 2 -20 18 -21 18 -45 -5 -17 -16 -24 -32
-22 -54 1 -22 -3 -31 -15 -34 -10 -2 -18 2 -18 10 -1 7 -16 53 -34 101 l-33
88 20 14 c12 8 22 15 23 15 2 0 40 -26 86 -57z m-133 -121 l50 -83 -23 -11
c-20 -9 -35 -5 -92 26 -37 19 -69 34 -70 33 -2 -2 15 -28 36 -59 36 -51 38
-57 23 -69 -14 -12 -17 -11 -27 4 -6 10 -32 51 -58 90 -44 68 -45 72 -27 85
17 12 28 8 94 -26 41 -22 75 -38 75 -36 0 3 -16 29 -36 59 -31 46 -35 57 -24
70 16 19 16 20 79 -83z m-195 -107 c25 -50 42 -93 38 -97 -20 -19 -34 -5 -76
77 -41 81 -44 91 -29 102 9 7 18 12 19 10 1 -1 23 -43 48 -92z m-90 49 c4 -9
5 -18 4 -19 -2 -1 -18 -7 -35 -14 -34 -14 -39 -25 -24 -50 8 -12 14 -13 36 -3
29 13 45 9 45 -13 0 -7 -13 -16 -30 -20 -35 -8 -35 -5 -13 -50 15 -31 15 -37
3 -45 -8 -6 -17 -10 -20 -10 -3 0 -24 43 -47 96 l-41 95 51 24 c64 29 63 29
71 9z"/>
<path d="M2200 596 c0 -2 7 -20 15 -40 14 -32 17 -35 35 -24 26 17 25 20 -10
46 -28 21 -40 26 -40 18z"/>
<path d="M681 1123 c20 -53 77 -148 114 -188 35 -39 35 -39 -5 15 -22 30 -57
88 -77 128 -37 74 -50 93 -32 45z"/>
<path d="M1060 739 c31 -21 139 -68 202 -87 87 -27 246 -43 328 -33 60 8 56 8
-57 10 -166 2 -293 30 -420 95 -53 26 -81 35 -53 15z"/>
<path d="M37 619 c-27 -8 -37 -16 -37 -31 0 -13 5 -18 14 -15 142 55 280 12
417 -128 150 -153 282 -231 455 -266 109 -23 177 -21 238 5 48 20 44 28 -9 16
-91 -21 -224 -5 -345 42 -90 35 -192 107 -302 213 -131 127 -202 165 -316 171
-42 2 -94 -2 -115 -7z"/>
<path d="M54 301 c-41 -10 -54 -19 -54 -36 0 -11 7 -11 38 -3 57 16 161 5 223
-24 30 -14 88 -51 129 -82 168 -127 354 -180 494 -141 88 25 166 55 206 81 35
22 99 84 87 84 -3 0 -37 -20 -75 -45 -100 -64 -206 -98 -312 -98 -136 -1 -242
41 -390 151 -52 39 -119 80 -149 92 -62 23 -151 33 -197 21z"/>
</g>
</svg>
